STARTFONT 2.1
FONT -Sun-Serif-Medium-R-Normal-Serif-14-140-72-72-M-80-ISO8859-1
SIZE 14 72 72
FONTBOUNDINGBOX 8 15 0 -4

STARTPROPERTIES 21
FONTNAME_REGISTRY ""
FOUNDRY "Sun"
FAMILY_NAME "Serif"
WEIGHT_NAME "Medium"
SLANT "R"
SETWIDTH_NAME "Normal"
ADD_STYLE_NAME "Serif"
PIXEL_SIZE 14
POINT_SIZE 140
RESOLUTION_X 72
RESOLUTION_Y 72
SPACING "M"
AVERAGE_WIDTH 80
CHARSET_REGISTRY "ISO8859"
CHARSET_ENCODING "1"
WEIGHT 10
X_HEIGHT -1
QUAD_WIDTH 8
DEFAULT_CHAR 0
FONT_DESCENT 4
FONT_ASCENT 11
ENDPROPERTIES

CHARS 191

STARTCHAR <unknown>
ENCODING 32
SWIDTH 42 0
DWIDTH 8 0
BBX 8 15 0 -4
BITMAP
00
00
00
00
00
00
00
00
00
00
00
00
00
00
00
ENDCHAR

STARTCHAR <unknown>
ENCODING 33
SWIDTH 42 0
DWIDTH 8 0
BBX 8 15 0 -4
BITMAP
00
00
08
08
08
08
08
08
00
00
08
08
00
00
00
ENDCHAR

STARTCHAR <unknown>
ENCODING 34
SWIDTH 42 0
DWIDTH 8 0
BBX 8 15 0 -4
BITMAP
00
00
24
24
24
24
00
00
00
00
00
00
00
00
00
ENDCHAR

STARTCHAR <unknown>
ENCODING 35
SWIDTH 42 0
DWIDTH 8 0
BBX 8 15 0 -4
BITMAP
00
00
12
12
12
7F
24
24
FE
48
48
48
00
00
00
ENDCHAR

STARTCHAR <unknown>
ENCODING 36
SWIDTH 42 0
DWIDTH 8 0
BBX 8 15 0 -4
BITMAP
00
10
10
3A
46
42
30
0C
02
42
62
5C
08
08
00
ENDCHAR

STARTCHAR <unknown>
ENCODING 37
SWIDTH 42 0
DWIDTH 8 0
BBX 8 15 0 -4
BITMAP
00
00
30
48
49
4A
34
08
16
29
49
09
06
00
00
ENDCHAR

STARTCHAR <unknown>
ENCODING 38
SWIDTH 42 0
DWIDTH 8 0
BBX 8 15 0 -4
BITMAP
00
00
18
24
20
20
10
29
46
44
4E
39
00
00
00
ENDCHAR

STARTCHAR <unknown>
ENCODING 39
SWIDTH 42 0
DWIDTH 8 0
BBX 8 15 0 -4
BITMAP
00
00
04
04
08
10
00
00
00
00
00
00
00
00
00
ENDCHAR

STARTCHAR <unknown>
ENCODING 40
SWIDTH 42 0
DWIDTH 8 0
BBX 8 15 0 -4
BITMAP
00
04
08
10
10
20
20
20
20
20
10
10
08
04
00
ENDCHAR

STARTCHAR <unknown>
ENCODING 41
SWIDTH 42 0
DWIDTH 8 0
BBX 8 15 0 -4
BITMAP
00
20
10
08
08
04
04
04
04
04
08
08
10
20
00
ENDCHAR

STARTCHAR <unknown>
ENCODING 42
SWIDTH 42 0
DWIDTH 8 0
BBX 8 15 0 -4
BITMAP
00
00
00
08
08
5D
3E
1C
14
22
00
00
00
00
00
ENDCHAR

STARTCHAR <unknown>
ENCODING 43
SWIDTH 42 0
DWIDTH 8 0
BBX 8 15 0 -4
BITMAP
00
00
00
00
08
08
08
7F
08
08
08
00
00
00
00
ENDCHAR

STARTCHAR <unknown>
ENCODING 44
SWIDTH 42 0
DWIDTH 8 0
BBX 8 15 0 -4
BITMAP
00
00
00
00
00
00
00
00
00
00
18
18
08
10
20
ENDCHAR

STARTCHAR <unknown>
ENCODING 45
SWIDTH 42 0
DWIDTH 8 0
BBX 8 15 0 -4
BITMAP
00
00
00
00
00
00
00
7E
00
00
00
00
00
00
00
ENDCHAR

STARTCHAR <unknown>
ENCODING 46
SWIDTH 42 0
DWIDTH 8 0
BBX 8 15 0 -4
BITMAP
00
00
00
00
00
00
00
00
00
00
18
18
00
00
00
ENDCHAR

STARTCHAR <unknown>
ENCODING 47
SWIDTH 42 0
DWIDTH 8 0
BBX 8 15 0 -4
BITMAP
00
01
02
02
04
04
08
08
10
10
20
20
40
00
00
ENDCHAR

STARTCHAR <unknown>
ENCODING 48
SWIDTH 42 0
DWIDTH 8 0
BBX 8 15 0 -4
BITMAP
00
00
1C
22
22
22
22
22
22
22
22
1C
00
00
00
ENDCHAR

STARTCHAR <unknown>
ENCODING 49
SWIDTH 42 0
DWIDTH 8 0
BBX 8 15 0 -4
BITMAP
00
00
08
18
28
08
08
08
08
08
08
3E
00
00
00
ENDCHAR

STARTCHAR <unknown>
ENCODING 50
SWIDTH 42 0
DWIDTH 8 0
BBX 8 15 0 -4
BITMAP
00
00
3C
46
42
02
04
08
10
20
42
7E
00
00
00
ENDCHAR

STARTCHAR <unknown>
ENCODING 51
SWIDTH 42 0
DWIDTH 8 0
BBX 8 15 0 -4
BITMAP
00
00
1C
26
02
02
1C
06
02
42
62
3C
00
00
00
ENDCHAR

STARTCHAR <unknown>
ENCODING 52
SWIDTH 42 0
DWIDTH 8 0
BBX 8 15 0 -4
BITMAP
00
08
08
10
10
24
24
44
7E
04
04
04
00
00
00
ENDCHAR

STARTCHAR <unknown>
ENCODING 53
SWIDTH 42 0
DWIDTH 8 0
BBX 8 15 0 -4
BITMAP
00
00
3E
20
20
20
3C
06
02
42
62
3C
00
00
00
ENDCHAR

STARTCHAR <unknown>
ENCODING 54
SWIDTH 42 0
DWIDTH 8 0
BBX 8 15 0 -4
BITMAP
00
0C
10
20
20
40
5C
62
42
42
62
3C
00
00
00
ENDCHAR

STARTCHAR <unknown>
ENCODING 55
SWIDTH 42 0
DWIDTH 8 0
BBX 8 15 0 -4
BITMAP
00
00
7E
42
02
04
04
08
08
10
10
10
00
00
00
ENDCHAR

STARTCHAR <unknown>
ENCODING 56
SWIDTH 42 0
DWIDTH 8 0
BBX 8 15 0 -4
BITMAP
00
00
3C
46
42
62
3C
46
42
42
62
3C
00
00
00
ENDCHAR

STARTCHAR <unknown>
ENCODING 57
SWIDTH 42 0
DWIDTH 8 0
BBX 8 15 0 -4
BITMAP
00
00
3C
46
42
42
46
3A
02
04
04
08
30
00
00
ENDCHAR

STARTCHAR <unknown>
ENCODING 58
SWIDTH 42 0
DWIDTH 8 0
BBX 8 15 0 -4
BITMAP
00
00
00
00
00
18
18
00
00
00
18
18
00
00
00
ENDCHAR

STARTCHAR <unknown>
ENCODING 59
SWIDTH 42 0
DWIDTH 8 0
BBX 8 15 0 -4
BITMAP
00
00
00
00
00
18
18
00
00
00
18
18
08
10
20
ENDCHAR

STARTCHAR <unknown>
ENCODING 60
SWIDTH 42 0
DWIDTH 8 0
BBX 8 15 0 -4
BITMAP
00
00
02
04
08
10
20
40
20
10
08
04
02
00
00
ENDCHAR

STARTCHAR <unknown>
ENCODING 61
SWIDTH 42 0
DWIDTH 8 0
BBX 8 15 0 -4
BITMAP
00
00
00
00
00
00
7E
00
7E
00
00
00
00
00
00
ENDCHAR

STARTCHAR <unknown>
ENCODING 62
SWIDTH 42 0
DWIDTH 8 0
BBX 8 15 0 -4
BITMAP
00
00
40
20
10
08
04
02
04
08
10
20
40
00
00
ENDCHAR

STARTCHAR <unknown>
ENCODING 63
SWIDTH 42 0
DWIDTH 8 0
BBX 8 15 0 -4
BITMAP
00
00
3C
62
42
02
04
08
18
00
00
18
00
00
00
ENDCHAR

STARTCHAR <unknown>
ENCODING 64
SWIDTH 42 0
DWIDTH 8 0
BBX 8 15 0 -4
BITMAP
00
00
0C
32
21
47
49
49
46
20
31
0E
00
00
00
ENDCHAR

STARTCHAR <unknown>
ENCODING 65
SWIDTH 42 0
DWIDTH 8 0
BBX 8 15 0 -4
BITMAP
00
00
08
08
14
14
14
22
22
3E
41
63
00
00
00
ENDCHAR

STARTCHAR <unknown>
ENCODING 66
SWIDTH 42 0
DWIDTH 8 0
BBX 8 15 0 -4
BITMAP
00
00
7C
26
22
22
3C
22
21
21
23
7E
00
00
00
ENDCHAR

STARTCHAR <unknown>
ENCODING 67
SWIDTH 42 0
DWIDTH 8 0
BBX 8 15 0 -4
BITMAP
00
00
1A
26
42
40
40
40
40
42
64
38
00
00
00
ENDCHAR

STARTCHAR <unknown>
ENCODING 68
SWIDTH 42 0
DWIDTH 8 0
BBX 8 15 0 -4
BITMAP
00
00
7C
22
21
21
21
21
21
21
22
7C
00
00
00
ENDCHAR

STARTCHAR <unknown>
ENCODING 69
SWIDTH 42 0
DWIDTH 8 0
BBX 8 15 0 -4
BITMAP
00
00
7F
21
20
20
3E
20
20
20
21
7F
00
00
00
ENDCHAR

STARTCHAR <unknown>
ENCODING 70
SWIDTH 42 0
DWIDTH 8 0
BBX 8 15 0 -4
BITMAP
00
00
7F
21
20
20
3C
20
20
20
20
70
00
00
00
ENDCHAR

STARTCHAR <unknown>
ENCODING 71
SWIDTH 42 0
DWIDTH 8 0
BBX 8 15 0 -4
BITMAP
00
00
1A
26
42
40
40
47
42
42
66
3A
00
00
00
ENDCHAR

STARTCHAR <unknown>
ENCODING 72
SWIDTH 42 0
DWIDTH 8 0
BBX 8 15 0 -4
BITMAP
00
00
77
22
22
22
3E
22
22
22
22
77
00
00
00
ENDCHAR

STARTCHAR <unknown>
ENCODING 73
SWIDTH 42 0
DWIDTH 8 0
BBX 8 15 0 -4
BITMAP
00
00
3E
08
08
08
08
08
08
08
08
3E
00
00
00
ENDCHAR

STARTCHAR <unknown>
ENCODING 74
SWIDTH 42 0
DWIDTH 8 0
BBX 8 15 0 -4
BITMAP
00
00
1F
04
04
04
04
04
04
44
64
38
00
00
00
ENDCHAR

STARTCHAR <unknown>
ENCODING 75
SWIDTH 42 0
DWIDTH 8 0
BBX 8 15 0 -4
BITMAP
00
00
73
22
24
28
38
24
24
22
22
73
00
00
00
ENDCHAR

STARTCHAR <unknown>
ENCODING 76
SWIDTH 42 0
DWIDTH 8 0
BBX 8 15 0 -4
BITMAP
00
00
70
20
20
20
20
20
20
20
21
7F
00
00
00
ENDCHAR

STARTCHAR <unknown>
ENCODING 77
SWIDTH 42 0
DWIDTH 8 0
BBX 8 15 0 -4
BITMAP
00
00
83
42
46
66
6A
5A
52
42
42
E7
00
00
00
ENDCHAR

STARTCHAR <unknown>
ENCODING 78
SWIDTH 42 0
DWIDTH 8 0
BBX 8 15 0 -4
BITMAP
00
00
C7
62
62
52
52
4A
4A
46
46
E2
00
00
00
ENDCHAR

STARTCHAR <unknown>
ENCODING 79
SWIDTH 42 0
DWIDTH 8 0
BBX 8 15 0 -4
BITMAP
00
00
1C
26
42
42
42
42
42
42
64
38
00
00
00
ENDCHAR

STARTCHAR <unknown>
ENCODING 80
SWIDTH 42 0
DWIDTH 8 0
BBX 8 15 0 -4
BITMAP
00
00
7E
23
21
21
22
2C
20
20
20
70
00
00
00
ENDCHAR

STARTCHAR <unknown>
ENCODING 81
SWIDTH 42 0
DWIDTH 8 0
BBX 8 15 0 -4
BITMAP
00
00
1C
26
42
42
42
42
42
42
64
38
10
08
06
ENDCHAR

STARTCHAR <unknown>
ENCODING 82
SWIDTH 42 0
DWIDTH 8 0
BBX 8 15 0 -4
BITMAP
00
00
7C
22
22
22
3C
28
24
24
22
73
00
00
00
ENDCHAR

STARTCHAR <unknown>
ENCODING 83
SWIDTH 42 0
DWIDTH 8 0
BBX 8 15 0 -4
BITMAP
00
00
3A
46
42
60
38
0C
06
42
62
5C
00
00
00
ENDCHAR

STARTCHAR <unknown>
ENCODING 84
SWIDTH 42 0
DWIDTH 8 0
BBX 8 15 0 -4
BITMAP
00
00
7F
49
08
08
08
08
08
08
08
1C
00
00
00
ENDCHAR

STARTCHAR <unknown>
ENCODING 85
SWIDTH 42 0
DWIDTH 8 0
BBX 8 15 0 -4
BITMAP
00
00
E7
42
42
42
42
42
42
42
64
38
00
00
00
ENDCHAR

STARTCHAR <unknown>
ENCODING 86
SWIDTH 42 0
DWIDTH 8 0
BBX 8 15 0 -4
BITMAP
00
00
77
22
22
22
14
14
14
08
08
08
00
00
00
ENDCHAR

STARTCHAR <unknown>
ENCODING 87
SWIDTH 42 0
DWIDTH 8 0
BBX 8 15 0 -4
BITMAP
00
00
E3
41
49
49
4A
5A
2A
24
24
24
00
00
00
ENDCHAR

STARTCHAR <unknown>
ENCODING 88
SWIDTH 42 0
DWIDTH 8 0
BBX 8 15 0 -4
BITMAP
00
00
77
22
14
14
08
08
14
14
22
77
00
00
00
ENDCHAR

STARTCHAR <unknown>
ENCODING 89
SWIDTH 42 0
DWIDTH 8 0
BBX 8 15 0 -4
BITMAP
00
00
77
22
22
14
14
08
08
08
08
1C
00
00
00
ENDCHAR

STARTCHAR <unknown>
ENCODING 90
SWIDTH 42 0
DWIDTH 8 0
BBX 8 15 0 -4
BITMAP
00
00
7E
44
04
08
08
10
10
20
22
7E
00
00
00
ENDCHAR

STARTCHAR <unknown>
ENCODING 91
SWIDTH 42 0
DWIDTH 8 0
BBX 8 15 0 -4
BITMAP
00
3C
20
20
20
20
20
20
20
20
20
20
20
3C
00
ENDCHAR

STARTCHAR <unknown>
ENCODING 92
SWIDTH 42 0
DWIDTH 8 0
BBX 8 15 0 -4
BITMAP
00
40
20
20
10
10
08
08
04
04
02
02
01
00
00
ENDCHAR

STARTCHAR <unknown>
ENCODING 93
SWIDTH 42 0
DWIDTH 8 0
BBX 8 15 0 -4
BITMAP
00
3C
04
04
04
04
04
04
04
04
04
04
04
3C
00
ENDCHAR

STARTCHAR <unknown>
ENCODING 94
SWIDTH 42 0
DWIDTH 8 0
BBX 8 15 0 -4
BITMAP
00
00
00
08
14
22
00
00
00
00
00
00
00
00
00
ENDCHAR

STARTCHAR <unknown>
ENCODING 95
SWIDTH 42 0
DWIDTH 8 0
BBX 8 15 0 -4
BITMAP
00
00
00
00
00
00
00
00
00
00
00
00
7F
00
00
ENDCHAR

STARTCHAR <unknown>
ENCODING 96
SWIDTH 42 0
DWIDTH 8 0
BBX 8 15 0 -4
BITMAP
00
00
10
10
08
04
00
00
00
00
00
00
00
00
00
ENDCHAR

STARTCHAR <unknown>
ENCODING 97
SWIDTH 42 0
DWIDTH 8 0
BBX 8 15 0 -4
BITMAP
00
00
00
00
00
1C
26
02
3E
42
46
3B
00
00
00
ENDCHAR

STARTCHAR <unknown>
ENCODING 98
SWIDTH 42 0
DWIDTH 8 0
BBX 8 15 0 -4
BITMAP
00
00
60
20
20
2E
33
21
21
21
32
2C
00
00
00
ENDCHAR

STARTCHAR <unknown>
ENCODING 99
SWIDTH 42 0
DWIDTH 8 0
BBX 8 15 0 -4
BITMAP
00
00
00
00
00
1A
26
42
40
40
62
3C
00
00
00
ENDCHAR

STARTCHAR <unknown>
ENCODING 100
SWIDTH 42 0
DWIDTH 8 0
BBX 8 15 0 -4
BITMAP
00
00
06
02
02
1A
26
42
42
42
66
3B
00
00
00
ENDCHAR

STARTCHAR <unknown>
ENCODING 101
SWIDTH 42 0
DWIDTH 8 0
BBX 8 15 0 -4
BITMAP
00
00
00
00
00
1C
26
42
7E
40
62
3C
00
00
00
ENDCHAR

STARTCHAR <unknown>
ENCODING 102
SWIDTH 42 0
DWIDTH 8 0
BBX 8 15 0 -4
BITMAP
00
00
0C
12
10
7C
10
10
10
10
10
38
00
00
00
ENDCHAR

STARTCHAR <unknown>
ENCODING 103
SWIDTH 42 0
DWIDTH 8 0
BBX 8 15 0 -4
BITMAP
00
00
00
00
00
1D
32
22
26
3C
40
3E
61
43
3E
ENDCHAR

STARTCHAR <unknown>
ENCODING 104
SWIDTH 42 0
DWIDTH 8 0
BBX 8 15 0 -4
BITMAP
00
00
60
20
20
2C
32
22
22
22
22
73
00
00
00
ENDCHAR

STARTCHAR <unknown>
ENCODING 105
SWIDTH 42 0
DWIDTH 8 0
BBX 8 15 0 -4
BITMAP
00
00
08
08
00
38
08
08
08
08
08
3E
00
00
00
ENDCHAR

STARTCHAR <unknown>
ENCODING 106
SWIDTH 42 0
DWIDTH 8 0
BBX 8 15 0 -4
BITMAP
00
00
04
04
00
1C
04
04
04
04
04
04
04
48
30
ENDCHAR

STARTCHAR <unknown>
ENCODING 107
SWIDTH 42 0
DWIDTH 8 0
BBX 8 15 0 -4
BITMAP
00
00
60
20
20
26
24
28
38
24
22
67
00
00
00
ENDCHAR

STARTCHAR <unknown>
ENCODING 108
SWIDTH 42 0
DWIDTH 8 0
BBX 8 15 0 -4
BITMAP
00
00
38
08
08
08
08
08
08
08
08
3E
00
00
00
ENDCHAR

STARTCHAR <unknown>
ENCODING 109
SWIDTH 42 0
DWIDTH 8 0
BBX 8 15 0 -4
BITMAP
00
00
00
00
00
92
6D
49
49
49
49
49
00
00
00
ENDCHAR

STARTCHAR <unknown>
ENCODING 110
SWIDTH 42 0
DWIDTH 8 0
BBX 8 15 0 -4
BITMAP
00
00
00
00
00
6C
32
22
22
22
22
73
00
00
00
ENDCHAR

STARTCHAR <unknown>
ENCODING 111
SWIDTH 42 0
DWIDTH 8 0
BBX 8 15 0 -4
BITMAP
00
00
00
00
00
1C
26
42
42
42
64
38
00
00
00
ENDCHAR

STARTCHAR <unknown>
ENCODING 112
SWIDTH 42 0
DWIDTH 8 0
BBX 8 15 0 -4
BITMAP
00
00
00
00
00
6E
33
21
21
21
32
2C
20
20
70
ENDCHAR

STARTCHAR <unknown>
ENCODING 113
SWIDTH 42 0
DWIDTH 8 0
BBX 8 15 0 -4
BITMAP
00
00
00
00
00
1B
26
42
42
42
66
3A
02
02
07
ENDCHAR

STARTCHAR <unknown>
ENCODING 114
SWIDTH 42 0
DWIDTH 8 0
BBX 8 15 0 -4
BITMAP
00
00
00
00
00
6C
32
20
20
20
20
70
00
00
00
ENDCHAR

STARTCHAR <unknown>
ENCODING 115
SWIDTH 42 0
DWIDTH 8 0
BBX 8 15 0 -4
BITMAP
00
00
00
00
00
3E
42
40
3C
02
42
7C
00
00
00
ENDCHAR

STARTCHAR <unknown>
ENCODING 116
SWIDTH 42 0
DWIDTH 8 0
BBX 8 15 0 -4
BITMAP
00
00
10
10
10
7C
10
10
10
10
12
0C
00
00
00
ENDCHAR

STARTCHAR <unknown>
ENCODING 117
SWIDTH 42 0
DWIDTH 8 0
BBX 8 15 0 -4
BITMAP
00
00
00
00
00
66
22
22
22
22
26
1B
00
00
00
ENDCHAR

STARTCHAR <unknown>
ENCODING 118
SWIDTH 42 0
DWIDTH 8 0
BBX 8 15 0 -4
BITMAP
00
00
00
00
00
77
22
22
14
14
08
08
00
00
00
ENDCHAR

STARTCHAR <unknown>
ENCODING 119
SWIDTH 42 0
DWIDTH 8 0
BBX 8 15 0 -4
BITMAP
00
00
00
00
00
E7
42
5A
5A
24
24
24
00
00
00
ENDCHAR

STARTCHAR <unknown>
ENCODING 120
SWIDTH 42 0
DWIDTH 8 0
BBX 8 15 0 -4
BITMAP
00
00
00
00
00
77
22
14
08
14
22
77
00
00
00
ENDCHAR

STARTCHAR <unknown>
ENCODING 121
SWIDTH 42 0
DWIDTH 8 0
BBX 8 15 0 -4
BITMAP
00
00
00
00
00
77
22
22
14
14
0C
08
08
10
60
ENDCHAR

STARTCHAR <unknown>
ENCODING 122
SWIDTH 42 0
DWIDTH 8 0
BBX 8 15 0 -4
BITMAP
00
00
00
00
00
7E
44
08
10
20
42
7E
00
00
00
ENDCHAR

STARTCHAR <unknown>
ENCODING 123
SWIDTH 42 0
DWIDTH 8 0
BBX 8 15 0 -4
BITMAP
00
0E
10
10
10
10
10
60
10
10
10
10
10
0E
00
ENDCHAR

STARTCHAR <unknown>
ENCODING 124
SWIDTH 42 0
DWIDTH 8 0
BBX 8 15 0 -4
BITMAP
00
08
08
08
08
08
08
08
08
08
08
08
08
08
00
ENDCHAR

STARTCHAR <unknown>
ENCODING 125
SWIDTH 42 0
DWIDTH 8 0
BBX 8 15 0 -4
BITMAP
00
70
08
08
08
08
08
06
08
08
08
08
08
70
00
ENDCHAR

STARTCHAR <unknown>
ENCODING 126
SWIDTH 42 0
DWIDTH 8 0
BBX 8 15 0 -4
BITMAP
00
00
00
32
5A
4C
00
00
00
00
00
00
00
00
00
ENDCHAR

STARTCHAR <unknown>
ENCODING 160
SWIDTH 42 0
DWIDTH 8 0
BBX 8 15 0 -4
BITMAP
00
00
00
00
00
00
00
00
00
00
00
00
00
00
00
ENDCHAR

STARTCHAR <unknown>
ENCODING 161
SWIDTH 42 0
DWIDTH 8 0
BBX 8 15 0 -4
BITMAP
00
00
08
08
00
00
08
08
08
08
08
08
00
00
00
ENDCHAR

STARTCHAR <unknown>
ENCODING 162
SWIDTH 42 0
DWIDTH 8 0
BBX 8 15 0 -4
BITMAP
00
00
00
00
08
1E
2A
48
48
48
6A
3C
08
00
00
ENDCHAR

STARTCHAR <unknown>
ENCODING 163
SWIDTH 42 0
DWIDTH 8 0
BBX 8 15 0 -4
BITMAP
00
00
0E
19
10
10
10
7C
10
10
10
39
4E
00
00
ENDCHAR

STARTCHAR <unknown>
ENCODING 164
SWIDTH 42 0
DWIDTH 8 0
BBX 8 15 0 -4
BITMAP
00
00
00
00
00
22
1C
14
1C
22
00
00
00
00
00
ENDCHAR

STARTCHAR <unknown>
ENCODING 165
SWIDTH 42 0
DWIDTH 8 0
BBX 8 15 0 -4
BITMAP
00
00
41
22
14
08
08
1C
08
08
08
08
00
00
00
ENDCHAR

STARTCHAR <unknown>
ENCODING 166
SWIDTH 42 0
DWIDTH 8 0
BBX 8 15 0 -4
BITMAP
00
08
08
08
08
08
08
00
08
08
08
08
08
08
00
ENDCHAR

STARTCHAR <unknown>
ENCODING 167
SWIDTH 42 0
DWIDTH 8 0
BBX 8 15 0 -4
BITMAP
00
18
24
20
20
18
24
24
18
04
04
24
18
00
00
ENDCHAR

STARTCHAR <unknown>
ENCODING 168
SWIDTH 42 0
DWIDTH 8 0
BBX 8 15 0 -4
BITMAP
00
00
14
14
00
00
00
00
00
00
00
00
00
00
00
ENDCHAR

STARTCHAR <unknown>
ENCODING 169
SWIDTH 42 0
DWIDTH 8 0
BBX 8 15 0 -4
BITMAP
00
00
1C
22
4D
51
51
4D
22
1C
00
00
00
00
00
ENDCHAR

STARTCHAR <unknown>
ENCODING 170
SWIDTH 42 0
DWIDTH 8 0
BBX 8 15 0 -4
BITMAP
00
00
0C
02
0E
12
0E
00
1E
00
00
00
00
00
00
ENDCHAR

STARTCHAR <unknown>
ENCODING 171
SWIDTH 42 0
DWIDTH 8 0
BBX 8 15 0 -4
BITMAP
00
00
00
00
00
00
12
24
48
24
12
00
00
00
00
ENDCHAR

STARTCHAR <unknown>
ENCODING 172
SWIDTH 42 0
DWIDTH 8 0
BBX 8 15 0 -4
BITMAP
00
00
00
7E
02
02
00
00
00
00
00
00
00
00
00
ENDCHAR

STARTCHAR <unknown>
ENCODING 173
SWIDTH 42 0
DWIDTH 8 0
BBX 8 15 0 -4
BITMAP
00
00
00
00
00
00
00
7E
00
00
00
00
00
00
00
ENDCHAR

STARTCHAR <unknown>
ENCODING 174
SWIDTH 42 0
DWIDTH 8 0
BBX 8 15 0 -4
BITMAP
00
00
1C
22
5D
55
59
55
22
1C
00
00
00
00
00
ENDCHAR

STARTCHAR <unknown>
ENCODING 175
SWIDTH 42 0
DWIDTH 8 0
BBX 8 15 0 -4
BITMAP
00
00
00
3C
00
00
00
00
00
00
00
00
00
00
00
ENDCHAR

STARTCHAR <unknown>
ENCODING 176
SWIDTH 42 0
DWIDTH 8 0
BBX 8 15 0 -4
BITMAP
00
0C
14
18
00
00
00
00
00
00
00
00
00
00
00
ENDCHAR

STARTCHAR <unknown>
ENCODING 177
SWIDTH 42 0
DWIDTH 8 0
BBX 8 15 0 -4
BITMAP
00
00
00
08
08
08
7F
08
08
08
00
7F
00
00
00
ENDCHAR

STARTCHAR <unknown>
ENCODING 178
SWIDTH 42 0
DWIDTH 8 0
BBX 8 15 0 -4
BITMAP
00
00
0C
12
02
04
08
10
1E
00
00
00
00
00
00
ENDCHAR

STARTCHAR <unknown>
ENCODING 179
SWIDTH 42 0
DWIDTH 8 0
BBX 8 15 0 -4
BITMAP
00
00
0C
12
02
0C
02
12
0C
00
00
00
00
00
00
ENDCHAR

STARTCHAR <unknown>
ENCODING 180
SWIDTH 42 0
DWIDTH 8 0
BBX 8 15 0 -4
BITMAP
00
04
08
10
00
00
00
00
00
00
00
00
00
00
00
ENDCHAR

STARTCHAR <unknown>
ENCODING 181
SWIDTH 42 0
DWIDTH 8 0
BBX 8 15 0 -4
BITMAP
00
00
00
00
00
22
22
22
22
22
26
3B
20
40
00
ENDCHAR

STARTCHAR <unknown>
ENCODING 182
SWIDTH 42 0
DWIDTH 8 0
BBX 8 15 0 -4
BITMAP
00
00
3F
52
52
52
32
12
12
12
12
33
00
00
00
ENDCHAR

STARTCHAR <unknown>
ENCODING 183
SWIDTH 42 0
DWIDTH 8 0
BBX 8 15 0 -4
BITMAP
00
00
00
00
00
00
00
18
18
00
00
00
00
00
00
ENDCHAR

STARTCHAR <unknown>
ENCODING 184
SWIDTH 42 0
DWIDTH 8 0
BBX 8 15 0 -4
BITMAP
00
00
00
00
00
00
00
00
00
00
00
00
10
08
38
ENDCHAR

STARTCHAR <unknown>
ENCODING 185
SWIDTH 42 0
DWIDTH 8 0
BBX 8 15 0 -4
BITMAP
00
00
04
0C
04
04
04
04
0E
00
00
00
00
00
00
ENDCHAR

STARTCHAR <unknown>
ENCODING 186
SWIDTH 42 0
DWIDTH 8 0
BBX 8 15 0 -4
BITMAP
00
00
0C
12
12
12
0C
00
1E
00
00
00
00
00
00
ENDCHAR

STARTCHAR <unknown>
ENCODING 187
SWIDTH 42 0
DWIDTH 8 0
BBX 8 15 0 -4
BITMAP
00
00
00
00
00
00
48
24
12
24
48
00
00
00
00
ENDCHAR

STARTCHAR <unknown>
ENCODING 188
SWIDTH 42 0
DWIDTH 8 0
BBX 8 15 0 -4
BITMAP
00
00
00
20
61
22
24
7A
16
2A
4F
02
00
00
00
ENDCHAR

STARTCHAR <unknown>
ENCODING 189
SWIDTH 42 0
DWIDTH 8 0
BBX 8 15 0 -4
BITMAP
00
00
00
20
61
22
24
7A
15
21
42
07
00
00
00
ENDCHAR

STARTCHAR <unknown>
ENCODING 190
SWIDTH 42 0
DWIDTH 8 0
BBX 8 15 0 -4
BITMAP
00
00
00
60
11
32
14
6A
16
2A
4F
02
00
00
00
ENDCHAR

STARTCHAR <unknown>
ENCODING 191
SWIDTH 42 0
DWIDTH 8 0
BBX 8 15 0 -4
BITMAP
00
00
18
00
00
18
10
20
40
42
46
3C
00
00
00
ENDCHAR

STARTCHAR <unknown>
ENCODING 192
SWIDTH 42 0
DWIDTH 8 0
BBX 8 15 0 -4
BITMAP
10
08
00
08
14
14
14
22
22
3E
41
63
00
00
00
ENDCHAR

STARTCHAR <unknown>
ENCODING 193
SWIDTH 42 0
DWIDTH 8 0
BBX 8 15 0 -4
BITMAP
04
08
00
08
14
14
14
22
22
3E
41
63
00
00
00
ENDCHAR

STARTCHAR <unknown>
ENCODING 194
SWIDTH 42 0
DWIDTH 8 0
BBX 8 15 0 -4
BITMAP
08
14
22
08
14
14
14
22
22
3E
41
63
00
00
00
ENDCHAR

STARTCHAR <unknown>
ENCODING 195
SWIDTH 42 0
DWIDTH 8 0
BBX 8 15 0 -4
BITMAP
1A
2C
00
08
14
14
14
22
22
3E
41
63
00
00
00
ENDCHAR

STARTCHAR <unknown>
ENCODING 196
SWIDTH 42 0
DWIDTH 8 0
BBX 8 15 0 -4
BITMAP
22
22
00
08
14
14
14
22
22
3E
41
63
00
00
00
ENDCHAR

STARTCHAR <unknown>
ENCODING 197
SWIDTH 42 0
DWIDTH 8 0
BBX 8 15 0 -4
BITMAP
08
14
1C
08
14
14
14
22
22
3E
41
63
00
00
00
ENDCHAR

STARTCHAR <unknown>
ENCODING 198
SWIDTH 42 0
DWIDTH 8 0
BBX 8 15 0 -4
BITMAP
00
00
1F
18
18
28
2E
28
78
48
48
CF
00
00
00
ENDCHAR

STARTCHAR <unknown>
ENCODING 199
SWIDTH 42 0
DWIDTH 8 0
BBX 8 15 0 -4
BITMAP
00
00
1A
26
42
40
40
40
40
42
64
38
10
08
38
ENDCHAR

STARTCHAR <unknown>
ENCODING 200
SWIDTH 42 0
DWIDTH 8 0
BBX 8 15 0 -4
BITMAP
10
08
00
7F
21
20
20
3C
20
20
21
7F
00
00
00
ENDCHAR

STARTCHAR <unknown>
ENCODING 201
SWIDTH 42 0
DWIDTH 8 0
BBX 8 15 0 -4
BITMAP
04
08
00
7F
21
20
20
3C
20
20
21
7F
00
00
00
ENDCHAR

STARTCHAR <unknown>
ENCODING 202
SWIDTH 42 0
DWIDTH 8 0
BBX 8 15 0 -4
BITMAP
08
14
00
7F
21
20
20
3C
20
20
21
7F
00
00
00
ENDCHAR

STARTCHAR <unknown>
ENCODING 203
SWIDTH 42 0
DWIDTH 8 0
BBX 8 15 0 -4
BITMAP
12
12
00
7F
21
20
20
3C
20
20
21
7F
00
00
00
ENDCHAR

STARTCHAR <unknown>
ENCODING 204
SWIDTH 42 0
DWIDTH 8 0
BBX 8 15 0 -4
BITMAP
10
08
00
3E
08
08
08
08
08
08
08
3E
00
00
00
ENDCHAR

STARTCHAR <unknown>
ENCODING 205
SWIDTH 42 0
DWIDTH 8 0
BBX 8 15 0 -4
BITMAP
04
08
00
3E
08
08
08
08
08
08
08
3E
00
00
00
ENDCHAR

STARTCHAR <unknown>
ENCODING 206
SWIDTH 42 0
DWIDTH 8 0
BBX 8 15 0 -4
BITMAP
08
14
00
3E
08
08
08
08
08
08
08
3E
00
00
00
ENDCHAR

STARTCHAR <unknown>
ENCODING 207
SWIDTH 42 0
DWIDTH 8 0
BBX 8 15 0 -4
BITMAP
22
22
00
3E
08
08
08
08
08
08
08
3E
00
00
00
ENDCHAR

STARTCHAR <unknown>
ENCODING 208
SWIDTH 42 0
DWIDTH 8 0
BBX 8 15 0 -4
BITMAP
00
00
7C
22
21
21
71
21
21
21
22
7C
00
00
00
ENDCHAR

STARTCHAR <unknown>
ENCODING 209
SWIDTH 42 0
DWIDTH 8 0
BBX 8 15 0 -4
BITMAP
1A
2C
C3
62
62
52
52
4A
4A
46
46
E2
00
00
00
ENDCHAR

STARTCHAR <unknown>
ENCODING 210
SWIDTH 42 0
DWIDTH 8 0
BBX 8 15 0 -4
BITMAP
10
08
00
1C
26
42
42
42
42
42
64
38
00
00
00
ENDCHAR

STARTCHAR <unknown>
ENCODING 211
SWIDTH 42 0
DWIDTH 8 0
BBX 8 15 0 -4
BITMAP
04
08
00
1C
26
42
42
42
42
42
64
38
00
00
00
ENDCHAR

STARTCHAR <unknown>
ENCODING 212
SWIDTH 42 0
DWIDTH 8 0
BBX 8 15 0 -4
BITMAP
08
14
00
1C
26
42
42
42
42
42
64
38
00
00
00
ENDCHAR

STARTCHAR <unknown>
ENCODING 213
SWIDTH 42 0
DWIDTH 8 0
BBX 8 15 0 -4
BITMAP
1A
2C
00
1C
26
42
42
42
42
42
64
38
00
00
00
ENDCHAR

STARTCHAR <unknown>
ENCODING 214
SWIDTH 42 0
DWIDTH 8 0
BBX 8 15 0 -4
BITMAP
24
24
00
1C
26
42
42
42
42
42
64
38
00
00
00
ENDCHAR

STARTCHAR <unknown>
ENCODING 215
SWIDTH 42 0
DWIDTH 8 0
BBX 8 15 0 -4
BITMAP
00
00
00
00
41
22
14
08
14
22
41
00
00
00
00
ENDCHAR

STARTCHAR <unknown>
ENCODING 216
SWIDTH 42 0
DWIDTH 8 0
BBX 8 15 0 -4
BITMAP
00
04
1C
26
4A
4A
4A
52
52
52
64
38
20
00
00
ENDCHAR

STARTCHAR <unknown>
ENCODING 217
SWIDTH 42 0
DWIDTH 8 0
BBX 8 15 0 -4
BITMAP
10
08
E3
42
42
42
42
42
42
42
64
38
00
00
00
ENDCHAR

STARTCHAR <unknown>
ENCODING 218
SWIDTH 42 0
DWIDTH 8 0
BBX 8 15 0 -4
BITMAP
08
10
C7
42
42
42
42
42
42
42
64
38
00
00
00
ENDCHAR

STARTCHAR <unknown>
ENCODING 219
SWIDTH 42 0
DWIDTH 8 0
BBX 8 15 0 -4
BITMAP
08
14
E3
42
42
42
42
42
42
42
64
38
00
00
00
ENDCHAR

STARTCHAR <unknown>
ENCODING 220
SWIDTH 42 0
DWIDTH 8 0
BBX 8 15 0 -4
BITMAP
24
24
C3
42
42
42
42
42
42
42
64
38
00
00
00
ENDCHAR

STARTCHAR <unknown>
ENCODING 221
SWIDTH 42 0
DWIDTH 8 0
BBX 8 15 0 -4
BITMAP
04
08
63
22
22
14
14
08
08
08
08
1C
00
00
00
ENDCHAR

STARTCHAR <unknown>
ENCODING 222
SWIDTH 42 0
DWIDTH 8 0
BBX 8 15 0 -4
BITMAP
70
20
3E
23
21
21
22
3C
20
20
20
70
00
00
00
ENDCHAR

STARTCHAR <unknown>
ENCODING 223
SWIDTH 42 0
DWIDTH 8 0
BBX 8 15 0 -4
BITMAP
00
00
1C
22
22
42
4C
42
41
41
43
4E
00
00
00
ENDCHAR

STARTCHAR <unknown>
ENCODING 224
SWIDTH 42 0
DWIDTH 8 0
BBX 8 15 0 -4
BITMAP
00
00
10
08
00
1C
26
02
3E
42
46
3B
00
00
00
ENDCHAR

STARTCHAR <unknown>
ENCODING 225
SWIDTH 42 0
DWIDTH 8 0
BBX 8 15 0 -4
BITMAP
00
00
04
08
00
1C
26
02
3E
42
46
3B
00
00
00
ENDCHAR

STARTCHAR <unknown>
ENCODING 226
SWIDTH 42 0
DWIDTH 8 0
BBX 8 15 0 -4
BITMAP
00
00
08
14
00
1C
26
02
3E
42
46
3B
00
00
00
ENDCHAR

STARTCHAR <unknown>
ENCODING 227
SWIDTH 42 0
DWIDTH 8 0
BBX 8 15 0 -4
BITMAP
00
00
1A
2C
00
1C
26
02
3E
42
46
3B
00
00
00
ENDCHAR

STARTCHAR <unknown>
ENCODING 228
SWIDTH 42 0
DWIDTH 8 0
BBX 8 15 0 -4
BITMAP
00
00
24
24
00
1C
26
02
3E
42
46
3B
00
00
00
ENDCHAR

STARTCHAR <unknown>
ENCODING 229
SWIDTH 42 0
DWIDTH 8 0
BBX 8 15 0 -4
BITMAP
00
0C
14
18
00
1C
26
02
3E
42
46
3B
00
00
00
ENDCHAR

STARTCHAR <unknown>
ENCODING 230
SWIDTH 42 0
DWIDTH 8 0
BBX 8 15 0 -4
BITMAP
00
00
00
00
00
36
49
09
7F
88
89
76
00
00
00
ENDCHAR

STARTCHAR <unknown>
ENCODING 231
SWIDTH 42 0
DWIDTH 8 0
BBX 8 15 0 -4
BITMAP
00
00
00
00
00
1A
26
42
40
40
62
3C
10
08
38
ENDCHAR

STARTCHAR <unknown>
ENCODING 232
SWIDTH 42 0
DWIDTH 8 0
BBX 8 15 0 -4
BITMAP
00
00
10
08
00
1C
26
42
7E
40
62
3C
00
00
00
ENDCHAR

STARTCHAR <unknown>
ENCODING 233
SWIDTH 42 0
DWIDTH 8 0
BBX 8 15 0 -4
BITMAP
00
00
04
08
00
1C
26
42
7E
40
62
3C
00
00
00
ENDCHAR

STARTCHAR <unknown>
ENCODING 234
SWIDTH 42 0
DWIDTH 8 0
BBX 8 15 0 -4
BITMAP
00
00
08
14
00
1C
26
42
7E
40
62
3C
00
00
00
ENDCHAR

STARTCHAR <unknown>
ENCODING 235
SWIDTH 42 0
DWIDTH 8 0
BBX 8 15 0 -4
BITMAP
00
00
24
24
00
1C
26
42
7E
40
62
3C
00
00
00
ENDCHAR

STARTCHAR <unknown>
ENCODING 236
SWIDTH 42 0
DWIDTH 8 0
BBX 8 15 0 -4
BITMAP
00
00
10
08
00
38
08
08
08
08
08
3E
00
00
00
ENDCHAR

STARTCHAR <unknown>
ENCODING 237
SWIDTH 42 0
DWIDTH 8 0
BBX 8 15 0 -4
BITMAP
00
00
04
08
00
38
08
08
08
08
08
3E
00
00
00
ENDCHAR

STARTCHAR <unknown>
ENCODING 238
SWIDTH 42 0
DWIDTH 8 0
BBX 8 15 0 -4
BITMAP
00
00
08
14
00
38
08
08
08
08
08
3E
00
00
00
ENDCHAR

STARTCHAR <unknown>
ENCODING 239
SWIDTH 42 0
DWIDTH 8 0
BBX 8 15 0 -4
BITMAP
00
00
24
24
00
38
08
08
08
08
08
3E
00
00
00
ENDCHAR

STARTCHAR <unknown>
ENCODING 240
SWIDTH 42 0
DWIDTH 8 0
BBX 8 15 0 -4
BITMAP
00
24
18
18
24
04
3A
66
42
42
46
3C
00
00
00
ENDCHAR

STARTCHAR <unknown>
ENCODING 241
SWIDTH 42 0
DWIDTH 8 0
BBX 8 15 0 -4
BITMAP
00
00
1A
2C
00
6C
32
22
22
22
22
73
00
00
00
ENDCHAR

STARTCHAR <unknown>
ENCODING 242
SWIDTH 42 0
DWIDTH 8 0
BBX 8 15 0 -4
BITMAP
00
00
10
08
00
1C
26
42
42
42
64
38
00
00
00
ENDCHAR

STARTCHAR <unknown>
ENCODING 243
SWIDTH 42 0
DWIDTH 8 0
BBX 8 15 0 -4
BITMAP
00
00
04
08
00
1C
26
42
42
42
64
38
00
00
00
ENDCHAR

STARTCHAR <unknown>
ENCODING 244
SWIDTH 42 0
DWIDTH 8 0
BBX 8 15 0 -4
BITMAP
00
00
08
14
00
1C
26
42
42
42
64
38
00
00
00
ENDCHAR

STARTCHAR <unknown>
ENCODING 245
SWIDTH 42 0
DWIDTH 8 0
BBX 8 15 0 -4
BITMAP
00
00
1A
2C
00
1C
26
42
42
42
64
38
00
00
00
ENDCHAR

STARTCHAR <unknown>
ENCODING 246
SWIDTH 42 0
DWIDTH 8 0
BBX 8 15 0 -4
BITMAP
00
00
24
24
00
1C
26
42
42
42
64
38
00
00
00
ENDCHAR

STARTCHAR <unknown>
ENCODING 247
SWIDTH 42 0
DWIDTH 8 0
BBX 8 15 0 -4
BITMAP
00
00
00
08
08
00
00
7F
00
00
08
08
00
00
00
ENDCHAR

STARTCHAR <unknown>
ENCODING 248
SWIDTH 42 0
DWIDTH 8 0
BBX 8 15 0 -4
BITMAP
00
00
00
00
04
1C
26
4A
4A
52
74
38
20
00
00
ENDCHAR

STARTCHAR <unknown>
ENCODING 249
SWIDTH 42 0
DWIDTH 8 0
BBX 8 15 0 -4
BITMAP
00
00
10
08
00
66
22
22
22
22
26
1B
00
00
00
ENDCHAR

STARTCHAR <unknown>
ENCODING 250
SWIDTH 42 0
DWIDTH 8 0
BBX 8 15 0 -4
BITMAP
00
00
04
08
00
66
22
22
22
22
26
1B
00
00
00
ENDCHAR

STARTCHAR <unknown>
ENCODING 251
SWIDTH 42 0
DWIDTH 8 0
BBX 8 15 0 -4
BITMAP
00
00
08
14
00
66
22
22
22
22
26
1B
00
00
00
ENDCHAR

STARTCHAR <unknown>
ENCODING 252
SWIDTH 42 0
DWIDTH 8 0
BBX 8 15 0 -4
BITMAP
00
00
24
24
00
66
22
22
22
22
26
1B
00
00
00
ENDCHAR

STARTCHAR <unknown>
ENCODING 253
SWIDTH 42 0
DWIDTH 8 0
BBX 8 15 0 -4
BITMAP
00
00
04
08
00
77
22
22
14
14
0C
08
08
10
60
ENDCHAR

STARTCHAR <unknown>
ENCODING 254
SWIDTH 42 0
DWIDTH 8 0
BBX 8 15 0 -4
BITMAP
00
00
00
00
60
20
2E
33
21
21
32
2C
20
20
70
ENDCHAR

STARTCHAR <unknown>
ENCODING 255
SWIDTH 42 0
DWIDTH 8 0
BBX 8 15 0 -4
BITMAP
00
00
24
24
00
67
22
22
14
14
0C
08
08
10
60
ENDCHAR
ENDFONT
